<svg width="273" height="172" viewBox="0 0 273 172" fill="none" xmlns="http://www.w3.org/2000/svg">
<path d="M30.5197 116.64C27.8797 116.64 26.1197 115.72 25.2397 113.88C24.3597 111.96 23.9197 109.84 23.9197 107.52C23.9197 105.92 24.0397 104.36 24.2797 102.84C24.5197 101.24 24.7597 99.92 24.9997 98.88C25.6397 95.84 26.6797 92.24 28.1197 88.08C29.5597 83.84 31.1997 79.4 33.0397 74.76C34.9597 70.04 36.9597 65.4 39.0397 60.84C41.1197 56.2 43.1197 51.88 45.0397 47.88C47.0397 43.8 48.7997 40.32 50.3197 37.44C48.4797 37.52 46.3597 37.52 43.9597 37.44C41.5597 37.28 39.0797 37.2 36.5197 37.2C32.1197 37.2 27.7597 37.56 23.4397 38.28C19.1997 38.92 15.7197 40.48 12.9997 42.96C11.7197 44.16 10.7997 45.44 10.2397 46.8C9.67969 48.16 9.39969 49.52 9.39969 50.88C9.39969 52.4 9.63969 53.88 10.1197 55.32C10.1997 55.48 10.2397 55.68 10.2397 55.92C10.2397 56.72 9.83969 57.12 9.03969 57.12C8.55969 57.12 8.19969 56.92 7.95969 56.52C7.15969 55.24 6.55969 53.96 6.15969 52.68C5.83969 51.32 5.67969 50 5.67969 48.72C5.67969 46.48 6.07969 44.36 6.87969 42.36C7.67969 40.36 8.63969 38.72 9.75969 37.44C12.5597 34.16 16.3597 32 21.1597 30.96C25.9597 29.84 30.9597 29.28 36.1597 29.28C40.1597 29.28 44.0397 29.44 47.7997 29.76C51.6397 30.08 55.0397 30.32 57.9997 30.48C60.7997 30.64 64.2797 30.92 68.4397 31.32C72.5997 31.64 76.6397 31.8 80.5597 31.8C84.0797 31.8 87.2397 31.56 90.0397 31.08C92.8397 30.6 94.8797 29.72 96.1597 28.44C96.3997 28.92 96.5197 29.48 96.5197 30.12C96.5197 31.8 95.5597 33.44 93.6397 35.04C91.7197 36.64 89.1197 37.72 85.8397 38.28C84.7997 38.44 83.5997 38.56 82.2397 38.64C80.9597 38.72 79.5997 38.76 78.1597 38.76C75.7597 38.76 73.3597 38.72 70.9597 38.64C68.5597 38.48 66.4397 38.32 64.5997 38.16C62.7597 38 61.5197 37.96 60.8797 38.04C60.3997 38.76 59.6397 40.08 58.5997 42C57.6397 43.92 56.5997 46 55.4797 48.24C54.3597 50.48 53.3597 52.52 52.4797 54.36C50.9597 57.56 49.3597 61.16 47.6797 65.16C45.9997 69.16 44.3997 73.2 42.8797 77.28C41.3597 81.36 40.0397 85.24 38.9197 88.92C37.8797 92.6 37.1997 95.76 36.8797 98.4C36.7997 98.64 36.7597 98.92 36.7597 99.24C36.7597 99.48 36.7597 99.72 36.7597 99.96C36.7597 101.48 37.0397 102.8 37.5997 103.92C38.2397 104.96 39.1997 105.48 40.4797 105.48C41.5997 105.48 42.9597 104.88 44.5597 103.68C46.1597 102.48 47.9997 100.48 50.0797 97.68C50.4797 97.2 50.8397 96.96 51.1597 96.96C51.6397 96.96 51.8797 97.36 51.8797 98.16C51.8797 98.72 51.6797 99.48 51.2797 100.44C50.9597 101.4 50.3597 102.52 49.4797 103.8C48.7597 104.84 47.5997 106.24 45.9997 108C44.3997 109.68 42.8397 111.12 41.3197 112.32C39.9597 113.44 38.2797 114.44 36.2797 115.32C34.2797 116.2 32.3597 116.64 30.5197 116.64ZM96.9978 114.72C94.2778 114.72 92.3978 113.92 91.3578 112.32C90.3978 110.64 89.9178 108.72 89.9178 106.56C89.9178 104.24 90.2778 101.56 90.9978 98.52C91.7978 95.4 92.7578 92.2 93.8778 88.92C95.0778 85.56 96.2778 82.44 97.4778 79.56C97.8778 78.6 98.2378 77.56 98.5578 76.44C98.9578 75.32 99.1578 74.32 99.1578 73.44C99.1578 71.84 98.4378 71.04 96.9978 71.04C96.4378 71.04 95.7978 71.16 95.0778 71.4C94.3578 71.56 93.5178 71.92 92.5578 72.48C90.8778 73.28 89.2778 74.4 87.7578 75.84C86.2378 77.2 85.1978 78.24 84.6378 78.96C83.5978 80.24 82.5978 81.68 81.6378 83.28C80.6778 84.8 79.8378 86.36 79.1178 87.96C77.5178 91.4 76.2378 94.68 75.2778 97.8C74.3978 100.84 73.5578 103.44 72.7578 105.6C72.2778 106.96 71.7978 108.36 71.3178 109.8C70.8378 111.24 70.3978 112.64 69.9978 114H58.3578C58.3578 114 58.6378 113 59.1978 111C59.7578 109 60.4378 107 61.2378 105C64.9178 95.48 68.3978 85.76 71.6778 75.84C74.9578 65.92 78.9178 56.4 83.5578 47.28C85.6378 43.2 87.8778 39.44 90.2778 36C92.7578 32.56 95.3578 29.84 98.0778 27.84C100.878 25.76 103.798 24.72 106.838 24.72C109.238 24.72 110.878 25.28 111.758 26.4C112.718 27.44 113.198 28.76 113.198 30.36C113.198 32.12 112.838 33.96 112.118 35.88C111.398 37.8 110.678 39.44 109.958 40.8C108.518 43.68 106.638 46.92 104.318 50.52C101.998 54.12 99.5578 57.48 96.9978 60.6C96.4378 61.32 95.4778 62.48 94.1178 64.08C92.7578 65.6 91.3578 67.16 89.9178 68.76C88.5578 70.36 87.4778 71.6 86.6778 72.48C89.3178 70.56 91.5978 69.08 93.5178 68.04C95.4378 67 97.0778 66.28 98.4378 65.88C100.758 65.24 102.678 64.92 104.198 64.92C108.758 64.92 111.038 66.92 111.038 70.92C111.038 72.6 110.558 74.6 109.598 76.92C109.118 78.2 108.438 79.92 107.558 82.08C106.678 84.24 105.758 86.56 104.798 89.04C103.918 91.44 103.158 93.76 102.518 96C101.958 98.24 101.678 100.08 101.678 101.52C101.678 102.4 101.798 103.2 102.038 103.92C102.358 104.56 102.918 104.88 103.718 104.88C104.278 104.88 105.078 104.6 106.118 104.04C108.358 102.76 110.438 100.96 112.358 98.64C114.358 96.32 116.118 93.84 117.638 91.2C119.238 88.56 120.598 86.16 121.718 84C121.958 83.44 122.238 83.16 122.558 83.16C122.958 83.16 123.158 83.84 123.158 85.2C123.158 85.84 123.078 86.6 122.918 87.48C122.758 88.28 122.438 89.08 121.958 89.88C120.838 91.8 119.358 94.16 117.518 96.96C115.758 99.76 113.758 102.52 111.518 105.24C109.278 107.88 106.918 110.12 104.438 111.96C101.958 113.8 99.4778 114.72 96.9978 114.72ZM83.1978 71.64C87.1978 66.92 91.2378 61.88 95.3178 56.52C99.4778 51.08 102.918 45.56 105.638 39.96C105.798 39.56 106.158 38.76 106.718 37.56C107.278 36.36 107.798 35.04 108.278 33.6C108.758 32.08 108.998 30.8 108.998 29.76C108.998 28.4 108.478 27.72 107.438 27.72C106.398 27.72 105.158 28.44 103.718 29.88C102.358 31.32 100.958 33.24 99.5178 35.64C97.6778 38.68 95.7978 42.2 93.8778 46.2C91.9578 50.12 90.0778 54.28 88.2378 58.68C86.4778 63.08 84.7978 67.4 83.1978 71.64ZM145.415 112.32C141.735 114.24 137.855 115.2 133.775 115.2C130.335 115.2 127.135 114.36 124.175 112.68C121.215 111 119.215 108.32 118.175 104.64C117.695 102.96 117.455 101.2 117.455 99.36C117.455 96.32 117.975 93.2 119.015 90C120.135 86.72 121.575 83.72 123.335 81C126.055 76.76 129.495 73.24 133.655 70.44C137.815 67.64 142.415 66.24 147.455 66.24C151.215 66.24 154.135 67.2 156.215 69.12C158.295 71.04 159.335 73.28 159.335 75.84C159.335 78.88 158.295 81.56 156.215 83.88C154.215 86.12 151.575 87.84 148.295 89.04C146.695 89.6 144.975 90.04 143.135 90.36C141.375 90.6 139.695 90.72 138.095 90.72C134.815 90.72 132.295 90.28 130.535 89.4C129.015 93.32 128.255 96.92 128.255 100.2C128.255 103.16 128.935 105.6 130.295 107.52C131.655 109.36 133.815 110.28 136.775 110.28C139.255 110.28 141.695 109.6 144.095 108.24C146.575 106.88 148.855 105.2 150.935 103.2C153.095 101.2 154.895 99.28 156.335 97.44C157.455 96.08 158.415 94.8 159.215 93.6C160.015 92.4 160.855 91.04 161.735 89.52C162.615 87.92 163.655 85.96 164.855 83.64C165.175 83.08 165.455 82.8 165.695 82.8C166.175 82.8 166.415 83.44 166.415 84.72C166.415 85.44 166.295 86.24 166.055 87.12C165.895 87.92 165.575 88.76 165.095 89.64C163.975 91.64 162.615 93.84 161.015 96.24C159.495 98.56 157.935 100.8 156.335 102.96C154.895 104.88 153.255 106.64 151.415 108.24C149.575 109.84 147.575 111.2 145.415 112.32ZM134.495 86.76C134.895 87 135.335 87.16 135.815 87.24C136.295 87.32 136.775 87.36 137.255 87.36C138.855 87.36 140.455 87 142.055 86.28C143.655 85.48 145.015 84.68 146.135 83.88C147.975 82.6 149.535 81.08 150.815 79.32C152.095 77.56 152.815 75.56 152.975 73.32C153.055 72.36 152.815 71.56 152.255 70.92C151.775 70.2 150.895 69.84 149.615 69.84C148.975 69.84 148.175 69.96 147.215 70.2C145.935 70.52 144.655 71.12 143.375 72C142.095 72.88 140.855 73.92 139.655 75.12C139.255 75.52 138.535 76.32 137.495 77.52C136.535 78.64 135.615 79.92 134.735 81.36C133.855 82.72 133.415 83.92 133.415 84.96C133.415 85.84 133.775 86.44 134.495 86.76ZM174.143 114.96C170.463 114.96 167.263 113.8 164.543 111.48C161.903 109.16 160.583 105.44 160.583 100.32C160.583 96.56 161.263 92.64 162.623 88.56C163.983 84.48 165.903 80.68 168.383 77.16C170.943 73.64 174.023 70.76 177.623 68.52C181.223 66.28 185.263 65.16 189.743 65.16C193.423 65.16 196.263 65.88 198.263 67.32C200.343 68.68 201.823 70.52 202.703 72.84C203.583 75.16 204.023 77.64 204.023 80.28C204.023 82.28 203.783 84.32 203.303 86.4C202.903 88.4 202.303 90.4 201.503 92.4C202.863 94 204.583 94.8 206.663 94.8C208.903 94.8 210.983 93.96 212.903 92.28C214.023 91.32 215.023 90.12 215.903 88.68C216.863 87.16 217.703 85.76 218.423 84.48C218.663 84 218.943 83.76 219.263 83.76C219.663 83.76 219.863 84.32 219.863 85.44C219.863 86.16 219.743 87 219.503 87.96C219.343 88.92 218.943 89.88 218.303 90.84C217.103 92.92 215.863 94.52 214.583 95.64C213.303 96.68 211.863 97.52 210.263 98.16C209.063 98.64 207.783 98.88 206.423 98.88C203.943 98.88 201.703 98.12 199.703 96.6C199.063 97.96 198.263 99.36 197.303 100.8C194.983 104.72 191.983 108.08 188.303 110.88C184.623 113.6 179.903 114.96 174.143 114.96ZM178.703 110.4C180.543 110.4 182.303 109.8 183.983 108.6C185.743 107.32 187.343 105.76 188.783 103.92C190.223 102.08 191.463 100.16 192.503 98.16C193.623 96.16 194.543 94.4 195.263 92.88C192.543 90.56 191.183 87.64 191.183 84.12C191.183 81.8 191.823 80 193.103 78.72C194.383 77.44 196.143 76.88 198.383 77.04C198.303 75.2 197.823 73.68 196.943 72.48C196.063 71.28 194.623 70.68 192.623 70.68C190.783 70.68 189.023 71.24 187.343 72.36C185.743 73.48 184.223 74.92 182.783 76.68C181.423 78.36 180.183 80.12 179.063 81.96C178.023 83.72 177.143 85.32 176.423 86.76C175.383 88.84 174.423 91.36 173.543 94.32C172.663 97.28 172.223 100.04 172.223 102.6C172.223 104.84 172.663 106.72 173.543 108.24C174.503 109.68 176.223 110.4 178.703 110.4ZM220.609 56.64C221.089 56.08 221.809 55.16 222.769 53.88C223.729 52.6 224.689 51.2 225.649 49.68C226.689 48.08 227.569 46.64 228.289 45.36C229.009 44.08 229.409 43.2 229.489 42.72C227.889 42.88 226.689 42.52 225.889 41.64C225.089 40.68 224.689 39.52 224.689 38.16C224.689 36.56 225.209 34.84 226.249 33C227.929 30.44 230.089 29.16 232.729 29.16C233.689 29.16 234.569 29.4 235.369 29.88C237.129 30.92 238.009 32.64 238.009 35.04C238.009 36.32 237.769 37.68 237.289 39.12C236.889 40.48 236.329 41.84 235.609 43.2C235.129 44 234.409 45.16 233.449 46.68C232.569 48.2 231.489 49.76 230.209 51.36C228.929 52.88 227.569 54.2 226.129 55.32C224.689 56.36 223.289 56.88 221.929 56.88C221.689 56.88 221.449 56.88 221.209 56.88C221.049 56.8 220.849 56.72 220.609 56.64ZM235.809 116.4C233.089 116.4 230.529 116.04 228.129 115.32C225.729 114.6 223.769 113.48 222.249 111.96C220.729 110.44 219.969 108.52 219.969 106.2C219.969 104.44 220.489 102.72 221.529 101.04C222.649 99.36 224.209 98.52 226.209 98.52C227.089 98.52 227.889 98.72 228.609 99.12C229.329 99.52 229.809 100.04 230.049 100.68C229.969 100.76 229.769 101.04 229.449 101.52C229.129 101.92 228.929 102.2 228.849 102.36C228.129 103.8 227.769 105.12 227.769 106.32C227.769 108 228.369 109.36 229.569 110.4C230.849 111.44 232.489 111.96 234.489 111.96C237.129 111.88 239.409 110.96 241.329 109.2C243.329 107.36 244.329 105.2 244.329 102.72C244.329 101.28 244.009 99.92 243.369 98.64C242.329 96.48 240.929 94.64 239.169 93.12C237.489 91.52 235.849 89.92 234.249 88.32C232.729 86.72 231.609 84.8 230.889 82.56C230.569 81.52 230.409 80.24 230.409 78.72C230.409 77.2 230.609 75.72 231.009 74.28C231.409 72.76 232.009 71.48 232.809 70.44C233.929 68.92 235.609 67.52 237.849 66.24C240.649 64.72 243.929 63.96 247.689 63.96C250.169 63.96 252.369 64.28 254.289 64.92C255.729 65.4 256.969 66.2 258.009 67.32C259.129 68.36 259.689 69.76 259.689 71.52C259.689 73.52 259.049 75.44 257.769 77.28C256.569 79.04 254.809 80.12 252.489 80.52C251.049 80.68 249.769 80.44 248.649 79.8C247.529 79.08 247.129 77.76 247.449 75.84C249.609 75.36 251.169 74.48 252.129 73.2C252.609 72.48 252.849 71.76 252.849 71.04C252.849 69.68 252.289 68.76 251.169 68.28C250.129 67.72 249.129 67.44 248.169 67.44C246.969 67.44 245.809 67.6 244.689 67.92C243.649 68.16 242.689 68.6 241.809 69.24C240.049 70.76 239.169 72.52 239.169 74.52C239.169 74.84 239.209 75.2 239.289 75.6C239.449 76 239.569 76.4 239.649 76.8C240.049 77.84 240.649 78.8 241.449 79.68C242.249 80.56 243.049 81.32 243.849 81.96C245.849 83.4 247.889 84.96 249.969 86.64C252.129 88.32 253.729 90.36 254.769 92.76C255.569 94.44 255.969 96.16 255.969 97.92C255.969 100.32 255.369 102.52 254.169 104.52C252.969 106.44 251.609 107.96 250.089 109.08C252.729 107.96 255.289 106 257.769 103.2C260.329 100.32 262.529 97.48 264.369 94.68C265.569 92.84 266.649 91.12 267.609 89.52C268.649 87.84 269.689 86 270.729 84C271.049 83.44 271.329 83.16 271.569 83.16C272.049 83.16 272.289 83.84 272.289 85.2C272.289 85.76 272.169 86.44 271.929 87.24C271.769 88.04 271.489 88.84 271.089 89.64C269.649 92.04 268.289 94.28 267.009 96.36C265.729 98.36 264.169 100.56 262.329 102.96C258.649 107.84 254.729 111.32 250.569 113.4C246.409 115.4 241.489 116.4 235.809 116.4Z" fill="white"/>
<path d="M72.5814 160.19C72.3214 159.97 72.1414 159.7 72.0414 159.38C71.9414 159.06 71.8914 158.71 71.8914 158.33C71.8914 158.09 71.9014 157.85 71.9214 157.61C71.9614 157.35 72.0014 157.09 72.0414 156.83C72.2014 156.03 72.4714 155.08 72.8514 153.98C73.2514 152.88 73.7014 151.73 74.2014 150.53C74.7214 149.33 75.2414 148.17 75.7614 147.05C76.3014 145.91 76.7814 144.91 77.2014 144.05C77.6414 143.17 77.9714 142.52 78.1914 142.1C78.2714 141.94 78.3414 141.79 78.4014 141.65C78.4814 141.51 78.5614 141.38 78.6414 141.26L77.5614 141.41C76.6614 141.53 75.7314 141.72 74.7714 141.98C73.8314 142.24 72.9814 142.58 72.2214 143C71.4814 143.4 70.9414 143.89 70.6014 144.47C70.5814 144.53 70.5414 144.56 70.4814 144.56C70.4414 144.56 70.4114 144.52 70.3914 144.44C70.3514 144.36 70.3414 144.27 70.3614 144.17C70.5614 143.65 70.8114 143.15 71.1114 142.67C71.4114 142.19 71.7014 141.81 71.9814 141.53C72.4214 141.07 73.0214 140.74 73.7814 140.54C74.5414 140.34 75.3214 140.21 76.1214 140.15C76.9414 140.09 77.6414 140.06 78.2214 140.06H84.1314C85.5114 140.06 86.6114 140.27 87.4314 140.69C88.2714 141.11 88.8714 141.67 89.2314 142.37C89.5914 143.05 89.7314 143.78 89.6514 144.56C89.5714 145.4 89.3314 146.13 88.9314 146.75C88.5314 147.37 88.0314 147.9 87.4314 148.34C86.8514 148.76 86.2414 149.1 85.6014 149.36C84.9814 149.6 84.4014 149.78 83.8614 149.9C85.5414 150.22 86.7414 150.77 87.4614 151.55C88.1814 152.33 88.5414 153.26 88.5414 154.34C88.5414 155.2 88.3314 156.01 87.9114 156.77C87.5114 157.51 86.9614 158.18 86.2614 158.78C85.6614 159.3 84.8714 159.77 83.8914 160.19C82.9114 160.59 81.8514 160.91 80.7114 161.15C79.5714 161.39 78.4414 161.51 77.3214 161.51C76.3814 161.51 75.4914 161.4 74.6514 161.18C73.8114 160.98 73.1214 160.65 72.5814 160.19ZM76.2414 160.19C76.5214 160.23 76.8014 160.26 77.0814 160.28C77.3614 160.3 77.6414 160.31 77.9214 160.31C78.9014 160.31 79.8614 160.17 80.8014 159.89C81.7414 159.59 82.5614 159.12 83.2614 158.48C83.9814 157.84 84.4914 157 84.7914 155.96C84.9714 155.38 85.0614 154.79 85.0614 154.19C85.0614 153.25 84.8214 152.41 84.3414 151.67C83.8814 150.91 83.1514 150.47 82.1514 150.35C81.9314 150.41 81.6014 150.48 81.1614 150.56C80.7214 150.64 80.2614 150.71 79.7814 150.77C79.3014 150.83 78.8914 150.86 78.5514 150.86C78.2314 150.86 78.0714 150.79 78.0714 150.65C78.0714 150.53 78.1614 150.39 78.3414 150.23C78.5214 150.05 78.7214 149.9 78.9414 149.78C79.1614 149.64 79.3414 149.56 79.4814 149.54C79.8414 149.48 80.2614 149.45 80.7414 149.45C81.0014 149.45 81.2614 149.46 81.5214 149.48C81.8014 149.5 82.0914 149.53 82.3914 149.57C83.0314 149.37 83.5614 149.1 83.9814 148.76C84.4014 148.42 84.7614 148.1 85.0614 147.8C85.5414 147.3 85.9114 146.73 86.1714 146.09C86.4314 145.43 86.5614 144.79 86.5614 144.17C86.5614 143.35 86.3614 142.72 85.9614 142.28C85.5814 141.82 85.0714 141.49 84.4314 141.29C83.7914 141.09 83.1014 140.98 82.3614 140.96C82.0014 141.44 81.6214 142.01 81.2214 142.67C80.8414 143.31 80.4814 143.97 80.1414 144.65C79.8014 145.33 79.5014 145.96 79.2414 146.54C78.6814 147.74 78.0914 149.05 77.4714 150.47C76.8714 151.89 76.3714 153.27 75.9714 154.61C75.7714 155.23 75.5714 155.9 75.3714 156.62C75.1914 157.32 75.1014 157.95 75.1014 158.51C75.1014 158.95 75.1814 159.32 75.3414 159.62C75.5014 159.92 75.8014 160.11 76.2414 160.19ZM98.8331 161.18C98.2131 161.18 97.7831 160.94 97.5431 160.46C97.3231 159.98 97.2131 159.39 97.2131 158.69C97.2131 158.05 97.2731 157.42 97.3931 156.8C97.4531 156.52 97.5131 156.24 97.5731 155.96C97.6531 155.66 97.7431 155.35 97.8431 155.03C97.5031 155.65 97.1431 156.25 96.7631 156.83C96.4031 157.41 96.0331 157.92 95.6531 158.36C95.0131 159.14 94.3331 159.79 93.6131 160.31C92.9131 160.83 92.2131 161.09 91.5131 161.09C90.9531 161.09 90.4731 160.89 90.0731 160.49C89.6931 160.07 89.5031 159.35 89.5031 158.33C89.5031 157.29 89.6831 156.22 90.0431 155.12C90.4031 154.02 90.9031 153 91.5431 152.06C92.2031 151.1 92.9731 150.33 93.8531 149.75C94.7531 149.17 95.7331 148.88 96.7931 148.88C97.1331 148.88 97.5031 148.93 97.9031 149.03C98.3031 149.13 98.6731 149.32 99.0131 149.6C99.3531 149.86 99.5831 150.23 99.7031 150.71C99.7231 150.67 99.7431 150.64 99.7631 150.62C99.8031 150.6 99.8331 150.58 99.8531 150.56C100.133 150.12 100.453 149.75 100.813 149.45C101.173 149.15 101.573 149 102.013 149C102.233 149 102.543 149.01 102.943 149.03C103.343 149.05 103.633 149.05 103.813 149.03C103.713 149.11 103.573 149.27 103.393 149.51C103.233 149.75 103.083 150 102.943 150.26C102.803 150.5 102.693 150.69 102.613 150.83C102.073 151.87 101.583 152.9 101.143 153.92C100.703 154.94 100.363 155.92 100.123 156.86C100.063 157.06 100.023 157.25 100.003 157.43C99.9831 157.59 99.9731 157.75 99.9731 157.91C99.9731 158.43 100.143 158.69 100.483 158.69C100.803 158.69 101.203 158.49 101.683 158.09C102.383 157.53 102.993 156.83 103.513 155.99C104.053 155.15 104.523 154.34 104.923 153.56C105.003 153.42 105.073 153.35 105.133 153.35C105.253 153.35 105.313 153.52 105.313 153.86C105.313 154.02 105.283 154.2 105.223 154.4C105.183 154.6 105.113 154.79 105.013 154.97C104.733 155.45 104.363 156.04 103.903 156.74C103.463 157.44 102.963 158.13 102.403 158.81C101.843 159.47 101.253 160.03 100.633 160.49C100.033 160.95 99.4331 161.18 98.8331 161.18ZM92.8631 158.57C92.9231 158.59 93.0131 158.6 93.1331 158.6C93.5131 158.6 93.9231 158.44 94.3631 158.12C94.8031 157.8 95.2431 157.39 95.6831 156.89C96.1231 156.37 96.5131 155.85 96.8531 155.33C97.7331 153.93 98.3831 152.88 98.8031 152.18C99.2231 151.48 99.4631 151.08 99.5231 150.98C99.4231 150.64 99.2431 150.39 98.9831 150.23C98.7431 150.07 98.4531 149.99 98.1131 149.99C97.6731 149.99 97.2031 150.11 96.7031 150.35C96.2231 150.59 95.8131 150.88 95.4731 151.22C94.9531 151.74 94.4531 152.41 93.9731 153.23C93.5131 154.05 93.1331 154.86 92.8331 155.66C92.5531 156.46 92.4131 157.13 92.4131 157.67C92.4131 158.17 92.5631 158.47 92.8631 158.57ZM108.813 161.21C108.173 161.21 107.713 160.94 107.433 160.4C107.213 159.92 107.103 159.35 107.103 158.69C107.103 157.95 107.213 157.13 107.433 156.23C107.653 155.33 107.953 154.41 108.333 153.47C108.473 153.13 108.653 152.7 108.873 152.18C109.113 151.66 109.393 151.15 109.713 150.65C109.433 150.89 109.103 151.09 108.723 151.25C108.343 151.39 107.973 151.46 107.613 151.46C107.333 151.46 107.103 151.42 106.923 151.34C106.763 151.66 106.503 152.18 106.143 152.9C105.783 153.62 105.303 154.47 104.703 155.45C104.643 155.55 104.583 155.55 104.523 155.45C104.483 155.33 104.463 155.17 104.463 154.97C104.463 154.81 104.483 154.64 104.523 154.46C104.563 154.28 104.623 154.11 104.703 153.95C104.903 153.57 105.103 153.18 105.303 152.78C105.503 152.36 105.683 151.99 105.843 151.67C106.003 151.35 106.093 151.15 106.113 151.07C105.753 150.89 105.483 150.64 105.303 150.32C105.123 149.98 105.033 149.65 105.033 149.33C105.033 149.01 105.103 148.72 105.243 148.46C105.403 148.2 105.633 148 105.933 147.86C106.113 147.8 106.283 147.77 106.443 147.77C106.883 147.77 107.243 147.91 107.523 148.19C107.503 148.27 107.483 148.36 107.463 148.46C107.463 148.54 107.463 148.63 107.463 148.73C107.463 149.35 107.713 149.81 108.213 150.11C108.713 150.41 109.253 150.52 109.833 150.44C110.113 150.04 110.433 149.69 110.793 149.39C111.153 149.09 111.543 148.94 111.963 148.94C112.183 148.94 112.493 148.95 112.893 148.97C113.313 148.99 113.613 148.99 113.793 148.97C113.673 149.05 113.533 149.21 113.373 149.45C113.213 149.69 113.063 149.94 112.923 150.2C112.783 150.46 112.673 150.66 112.593 150.8C112.053 151.84 111.553 152.88 111.093 153.92C110.633 154.94 110.283 155.92 110.043 156.86C110.003 157.04 109.963 157.21 109.923 157.37C109.903 157.51 109.893 157.66 109.893 157.82C109.893 158.42 110.093 158.72 110.493 158.72C110.773 158.72 111.173 158.52 111.693 158.12C112.153 157.74 112.563 157.32 112.923 156.86C113.323 156.34 113.703 155.78 114.063 155.18C114.423 154.58 114.733 154.03 114.993 153.53C115.093 153.37 115.163 153.29 115.203 153.29C115.323 153.29 115.383 153.47 115.383 153.83C115.383 153.97 115.363 154.14 115.323 154.34C115.283 154.54 115.213 154.73 115.113 154.91C114.813 155.41 114.473 155.96 114.093 156.56C113.713 157.14 113.323 157.71 112.923 158.27C112.663 158.63 112.293 159.04 111.813 159.5C111.353 159.96 110.853 160.36 110.313 160.7C109.793 161.04 109.293 161.21 108.813 161.21ZM116.342 161.3C115.422 161.3 114.732 161.14 114.272 160.82C113.832 160.5 113.612 159.89 113.612 158.99C113.612 158.33 113.732 157.51 113.972 156.53C114.132 155.87 114.362 155.02 114.662 153.98C114.982 152.94 115.342 151.84 115.742 150.68C116.162 149.5 116.592 148.36 117.032 147.26C117.472 146.14 117.902 145.18 118.322 144.38C118.842 143.38 119.252 142.68 119.552 142.28C119.852 141.86 120.182 141.61 120.542 141.53C120.702 141.49 120.892 141.46 121.112 141.44C121.352 141.42 121.592 141.41 121.832 141.41C122.052 141.41 122.312 141.41 122.612 141.41C122.932 141.41 123.132 141.4 123.212 141.38C122.832 141.66 122.362 142.26 121.802 143.18C121.242 144.08 120.662 145.17 120.062 146.45C119.462 147.73 118.892 149.08 118.352 150.5C117.812 151.92 117.372 153.29 117.032 154.61C117.352 154.05 117.682 153.51 118.022 152.99C118.362 152.47 118.692 152.01 119.012 151.61C119.652 150.83 120.332 150.18 121.052 149.66C121.772 149.14 122.472 148.88 123.152 148.88C123.732 148.88 124.212 149.09 124.592 149.51C124.992 149.93 125.192 150.64 125.192 151.64C125.192 152.7 124.962 153.77 124.502 154.85C124.042 155.91 123.452 156.88 122.732 157.76C122.752 158.08 122.852 158.35 123.032 158.57C123.212 158.77 123.442 158.87 123.722 158.87C124.002 158.87 124.282 158.77 124.562 158.57C124.862 158.37 125.142 158.11 125.402 157.79C125.682 157.47 125.942 157.16 126.182 156.86C126.582 156.34 126.962 155.78 127.322 155.18C127.702 154.58 128.022 154.03 128.282 153.53C128.382 153.37 128.452 153.29 128.492 153.29C128.612 153.29 128.672 153.46 128.672 153.8C128.672 153.96 128.642 154.14 128.582 154.34C128.542 154.54 128.472 154.74 128.372 154.94C128.132 155.34 127.852 155.81 127.532 156.35C127.212 156.89 126.852 157.42 126.452 157.94C126.072 158.46 125.652 158.91 125.192 159.29C124.752 159.65 124.272 159.88 123.752 159.98C123.712 159.98 123.662 159.99 123.602 160.01C123.542 160.01 123.492 160.01 123.452 160.01C123.112 160.01 122.782 159.91 122.462 159.71C122.142 159.51 121.912 159.22 121.772 158.84C121.532 159.08 121.292 159.3 121.052 159.5C120.812 159.7 120.572 159.89 120.332 160.07C119.772 160.45 119.172 160.75 118.532 160.97C117.892 161.19 117.162 161.3 116.342 161.3ZM117.032 160.22C117.372 160.22 117.762 160.05 118.202 159.71C118.662 159.35 119.102 158.91 119.522 158.39C119.962 157.85 120.332 157.33 120.632 156.83C121.092 156.05 121.482 155.24 121.802 154.4C122.122 153.56 122.282 152.86 122.282 152.3C122.282 151.8 122.132 151.51 121.832 151.43C121.792 151.41 121.742 151.4 121.682 151.4C121.622 151.4 121.572 151.4 121.532 151.4C121.132 151.4 120.682 151.6 120.182 152C119.822 152.28 119.412 152.69 118.952 153.23C118.492 153.77 118.042 154.38 117.602 155.06C117.182 155.72 116.832 156.39 116.552 157.07C116.292 157.75 116.162 158.38 116.162 158.96C116.162 159.04 116.162 159.13 116.162 159.23C116.182 159.33 116.202 159.43 116.222 159.53C116.322 159.99 116.592 160.22 117.032 160.22ZM134.202 160.58C133.282 161.06 132.312 161.3 131.292 161.3C130.432 161.3 129.632 161.09 128.892 160.67C128.152 160.25 127.652 159.58 127.392 158.66C127.272 158.24 127.212 157.8 127.212 157.34C127.212 156.58 127.342 155.8 127.602 155C127.882 154.18 128.242 153.43 128.682 152.75C129.362 151.69 130.222 150.81 131.262 150.11C132.302 149.41 133.452 149.06 134.712 149.06C135.652 149.06 136.382 149.3 136.902 149.78C137.422 150.26 137.682 150.82 137.682 151.46C137.682 152.22 137.422 152.89 136.902 153.47C136.402 154.03 135.742 154.46 134.922 154.76C134.522 154.9 134.092 155.01 133.632 155.09C133.192 155.15 132.772 155.18 132.372 155.18C131.552 155.18 130.922 155.07 130.482 154.85C130.102 155.83 129.912 156.73 129.912 157.55C129.912 158.29 130.082 158.9 130.422 159.38C130.762 159.84 131.302 160.07 132.042 160.07C132.662 160.07 133.272 159.9 133.872 159.56C134.492 159.22 135.062 158.8 135.582 158.3C136.122 157.8 136.572 157.32 136.932 156.86C137.212 156.52 137.452 156.2 137.652 155.9C137.852 155.6 138.062 155.26 138.282 154.88C138.502 154.48 138.762 153.99 139.062 153.41C139.142 153.27 139.212 153.2 139.272 153.2C139.392 153.2 139.452 153.36 139.452 153.68C139.452 153.86 139.422 154.06 139.362 154.28C139.322 154.48 139.242 154.69 139.122 154.91C138.842 155.41 138.502 155.96 138.102 156.56C137.722 157.14 137.332 157.7 136.932 158.24C136.572 158.72 136.162 159.16 135.702 159.56C135.242 159.96 134.742 160.3 134.202 160.58ZM131.472 154.19C131.572 154.25 131.682 154.29 131.802 154.31C131.922 154.33 132.042 154.34 132.162 154.34C132.562 154.34 132.962 154.25 133.362 154.07C133.762 153.87 134.102 153.67 134.382 153.47C134.842 153.15 135.232 152.77 135.552 152.33C135.872 151.89 136.052 151.39 136.092 150.83C136.112 150.59 136.052 150.39 135.912 150.23C135.792 150.05 135.572 149.96 135.252 149.96C135.092 149.96 134.892 149.99 134.652 150.05C134.332 150.13 134.012 150.28 133.692 150.5C133.372 150.72 133.062 150.98 132.762 151.28C132.662 151.38 132.482 151.58 132.222 151.88C131.982 152.16 131.752 152.48 131.532 152.84C131.312 153.18 131.202 153.48 131.202 153.74C131.202 153.96 131.292 154.11 131.472 154.19ZM142.914 161.21C142.274 161.21 141.814 160.94 141.534 160.4C141.314 159.92 141.204 159.35 141.204 158.69C141.204 157.95 141.314 157.13 141.534 156.23C141.754 155.33 142.054 154.41 142.434 153.47C142.574 153.13 142.754 152.7 142.974 152.18C143.214 151.66 143.494 151.15 143.814 150.65C143.534 150.89 143.204 151.09 142.824 151.25C142.444 151.39 142.074 151.46 141.714 151.46C141.434 151.46 141.204 151.42 141.024 151.34C140.864 151.66 140.604 152.18 140.244 152.9C139.884 153.62 139.404 154.47 138.804 155.45C138.744 155.55 138.684 155.55 138.624 155.45C138.584 155.33 138.564 155.17 138.564 154.97C138.564 154.81 138.584 154.64 138.624 154.46C138.664 154.28 138.724 154.11 138.804 153.95C139.004 153.57 139.204 153.18 139.404 152.78C139.604 152.36 139.784 151.99 139.944 151.67C140.104 151.35 140.194 151.15 140.214 151.07C139.854 150.89 139.584 150.64 139.404 150.32C139.224 149.98 139.134 149.65 139.134 149.33C139.134 149.01 139.204 148.72 139.344 148.46C139.504 148.2 139.734 148 140.034 147.86C140.214 147.8 140.384 147.77 140.544 147.77C140.984 147.77 141.344 147.91 141.624 148.19C141.604 148.27 141.584 148.36 141.564 148.46C141.564 148.54 141.564 148.63 141.564 148.73C141.564 149.35 141.814 149.81 142.314 150.11C142.814 150.41 143.354 150.52 143.934 150.44C144.214 150.04 144.534 149.69 144.894 149.39C145.254 149.09 145.644 148.94 146.064 148.94C146.284 148.94 146.594 148.95 146.994 148.97C147.414 148.99 147.714 148.99 147.894 148.97C147.774 149.05 147.634 149.21 147.474 149.45C147.314 149.69 147.164 149.94 147.024 150.2C146.884 150.46 146.774 150.66 146.694 150.8C146.154 151.84 145.654 152.88 145.194 153.92C144.734 154.94 144.384 155.92 144.144 156.86C144.104 157.04 144.064 157.21 144.024 157.37C144.004 157.51 143.994 157.66 143.994 157.82C143.994 158.42 144.194 158.72 144.594 158.72C144.874 158.72 145.274 158.52 145.794 158.12C146.254 157.74 146.664 157.32 147.024 156.86C147.424 156.34 147.804 155.78 148.164 155.18C148.524 154.58 148.834 154.03 149.094 153.53C149.194 153.37 149.264 153.29 149.304 153.29C149.424 153.29 149.484 153.47 149.484 153.83C149.484 153.97 149.464 154.14 149.424 154.34C149.384 154.54 149.314 154.73 149.214 154.91C148.914 155.41 148.574 155.96 148.194 156.56C147.814 157.14 147.424 157.71 147.024 158.27C146.764 158.63 146.394 159.04 145.914 159.5C145.454 159.96 144.954 160.36 144.414 160.7C143.894 161.04 143.394 161.21 142.914 161.21ZM151.703 161.6C151.023 161.6 150.383 161.51 149.783 161.33C149.183 161.15 148.693 160.87 148.313 160.49C147.933 160.11 147.743 159.63 147.743 159.05C147.743 158.61 147.873 158.18 148.133 157.76C148.413 157.34 148.803 157.13 149.303 157.13C149.523 157.13 149.723 157.18 149.903 157.28C150.083 157.38 150.203 157.51 150.263 157.67C150.243 157.69 150.193 157.76 150.113 157.88C150.033 157.98 149.983 158.05 149.963 158.09C149.783 158.45 149.693 158.78 149.693 159.08C149.693 159.5 149.843 159.84 150.143 160.1C150.463 160.36 150.873 160.49 151.373 160.49C152.033 160.47 152.603 160.24 153.083 159.8C153.583 159.34 153.833 158.8 153.833 158.18C153.833 157.82 153.753 157.48 153.593 157.16C153.333 156.62 152.983 156.16 152.543 155.78C152.123 155.38 151.713 154.98 151.313 154.58C150.933 154.18 150.653 153.7 150.473 153.14C150.393 152.88 150.353 152.56 150.353 152.18C150.353 151.8 150.403 151.43 150.503 151.07C150.603 150.69 150.753 150.37 150.953 150.11C151.233 149.73 151.653 149.38 152.213 149.06C152.913 148.68 153.733 148.49 154.673 148.49C155.293 148.49 155.843 148.57 156.323 148.73C156.683 148.85 156.993 149.05 157.253 149.33C157.533 149.59 157.673 149.94 157.673 150.38C157.673 150.88 157.513 151.36 157.193 151.82C156.893 152.26 156.453 152.53 155.873 152.63C155.513 152.67 155.193 152.61 154.913 152.45C154.633 152.27 154.533 151.94 154.613 151.46C155.153 151.34 155.543 151.12 155.783 150.8C155.903 150.62 155.963 150.44 155.963 150.26C155.963 149.92 155.823 149.69 155.543 149.57C155.283 149.43 155.033 149.36 154.793 149.36C154.493 149.36 154.203 149.4 153.923 149.48C153.663 149.54 153.423 149.65 153.203 149.81C152.763 150.19 152.543 150.63 152.543 151.13C152.543 151.21 152.553 151.3 152.573 151.4C152.613 151.5 152.643 151.6 152.663 151.7C152.763 151.96 152.913 152.2 153.113 152.42C153.313 152.64 153.513 152.83 153.713 152.99C154.213 153.35 154.723 153.74 155.243 154.16C155.783 154.58 156.183 155.09 156.443 155.69C156.643 156.11 156.743 156.54 156.743 156.98C156.743 157.58 156.593 158.13 156.293 158.63C155.993 159.11 155.653 159.49 155.273 159.77C155.933 159.49 156.573 159 157.193 158.3C157.833 157.58 158.383 156.87 158.843 156.17C159.143 155.71 159.413 155.28 159.653 154.88C159.913 154.46 160.173 154 160.433 153.5C160.513 153.36 160.583 153.29 160.643 153.29C160.763 153.29 160.823 153.46 160.823 153.8C160.823 153.94 160.793 154.11 160.733 154.31C160.693 154.51 160.623 154.71 160.523 154.91C160.163 155.51 159.823 156.07 159.503 156.59C159.183 157.09 158.793 157.64 158.333 158.24C157.413 159.46 156.433 160.33 155.393 160.85C154.353 161.35 153.123 161.6 151.703 161.6ZM167.391 161.18C166.711 161.18 166.241 160.98 165.981 160.58C165.741 160.16 165.621 159.68 165.621 159.14C165.621 158.56 165.711 157.89 165.891 157.13C166.091 156.35 166.331 155.55 166.611 154.73C166.911 153.89 167.211 153.11 167.511 152.39C167.611 152.15 167.701 151.89 167.781 151.61C167.881 151.33 167.931 151.08 167.931 150.86C167.931 150.46 167.751 150.26 167.391 150.26C167.251 150.26 167.091 150.29 166.911 150.35C166.731 150.39 166.521 150.48 166.281 150.62C165.861 150.82 165.461 151.1 165.081 151.46C164.701 151.8 164.441 152.06 164.301 152.24C164.041 152.56 163.791 152.92 163.551 153.32C163.311 153.7 163.101 154.09 162.921 154.49C162.521 155.35 162.201 156.17 161.961 156.95C161.741 157.71 161.531 158.36 161.331 158.9C161.211 159.24 161.091 159.59 160.971 159.95C160.851 160.31 160.741 160.66 160.641 161H157.731C157.731 161 157.801 160.75 157.941 160.25C158.081 159.75 158.251 159.25 158.451 158.75C159.371 156.37 160.241 153.94 161.061 151.46C161.881 148.98 162.871 146.6 164.031 144.32C164.551 143.3 165.111 142.36 165.711 141.5C166.331 140.64 166.981 139.96 167.661 139.46C168.361 138.94 169.091 138.68 169.851 138.68C170.451 138.68 170.861 138.82 171.081 139.1C171.321 139.36 171.441 139.69 171.441 140.09C171.441 140.53 171.351 140.99 171.171 141.47C170.991 141.95 170.811 142.36 170.631 142.7C170.271 143.42 169.801 144.23 169.221 145.13C168.641 146.03 168.031 146.87 167.391 147.65C167.251 147.83 167.011 148.12 166.671 148.52C166.331 148.9 165.981 149.29 165.621 149.69C165.281 150.09 165.011 150.4 164.811 150.62C165.471 150.14 166.041 149.77 166.521 149.51C167.001 149.25 167.411 149.07 167.751 148.97C168.331 148.81 168.811 148.73 169.191 148.73C170.331 148.73 170.901 149.23 170.901 150.23C170.901 150.65 170.781 151.15 170.541 151.73C170.421 152.05 170.251 152.48 170.031 153.02C169.811 153.56 169.581 154.14 169.341 154.76C169.121 155.36 168.931 155.94 168.771 156.5C168.631 157.06 168.561 157.52 168.561 157.88C168.561 158.1 168.591 158.3 168.651 158.48C168.731 158.64 168.871 158.72 169.071 158.72C169.211 158.72 169.411 158.65 169.671 158.51C170.231 158.19 170.751 157.74 171.231 157.16C171.731 156.58 172.171 155.96 172.551 155.3C172.951 154.64 173.291 154.04 173.571 153.5C173.631 153.36 173.701 153.29 173.781 153.29C173.881 153.29 173.931 153.46 173.931 153.8C173.931 153.96 173.911 154.15 173.871 154.37C173.831 154.57 173.751 154.77 173.631 154.97C173.351 155.45 172.981 156.04 172.521 156.74C172.081 157.44 171.581 158.13 171.021 158.81C170.461 159.47 169.871 160.03 169.251 160.49C168.631 160.95 168.011 161.18 167.391 161.18ZM163.941 150.41C164.941 149.23 165.951 147.97 166.971 146.63C168.011 145.27 168.871 143.89 169.551 142.49C169.591 142.39 169.681 142.19 169.821 141.89C169.961 141.59 170.091 141.26 170.211 140.9C170.331 140.52 170.391 140.2 170.391 139.94C170.391 139.6 170.261 139.43 170.001 139.43C169.741 139.43 169.431 139.61 169.071 139.97C168.731 140.33 168.381 140.81 168.021 141.41C167.561 142.17 167.091 143.05 166.611 144.05C166.131 145.03 165.661 146.07 165.201 147.17C164.761 148.27 164.341 149.35 163.941 150.41ZM175.925 161.24C175.005 161.24 174.205 160.95 173.525 160.37C172.865 159.79 172.535 158.86 172.535 157.58C172.535 156.64 172.705 155.66 173.045 154.64C173.385 153.62 173.865 152.67 174.485 151.79C175.125 150.91 175.895 150.19 176.795 149.63C177.695 149.07 178.705 148.79 179.825 148.79C180.745 148.79 181.455 148.97 181.955 149.33C182.475 149.67 182.845 150.13 183.065 150.71C183.285 151.29 183.395 151.91 183.395 152.57C183.395 153.07 183.335 153.58 183.215 154.1C183.115 154.6 182.965 155.1 182.765 155.6C183.105 156 183.535 156.2 184.055 156.2C184.615 156.2 185.135 155.99 185.615 155.57C185.895 155.33 186.145 155.03 186.365 154.67C186.605 154.29 186.815 153.94 186.995 153.62C187.055 153.5 187.125 153.44 187.205 153.44C187.305 153.44 187.355 153.58 187.355 153.86C187.355 154.04 187.325 154.25 187.265 154.49C187.225 154.73 187.125 154.97 186.965 155.21C186.665 155.73 186.355 156.13 186.035 156.41C185.715 156.67 185.355 156.88 184.955 157.04C184.655 157.16 184.335 157.22 183.995 157.22C183.375 157.22 182.815 157.03 182.315 156.65C182.155 156.99 181.955 157.34 181.715 157.7C181.135 158.68 180.385 159.52 179.465 160.22C178.545 160.9 177.365 161.24 175.925 161.24ZM177.065 160.1C177.525 160.1 177.965 159.95 178.385 159.65C178.825 159.33 179.225 158.94 179.585 158.48C179.945 158.02 180.255 157.54 180.515 157.04C180.795 156.54 181.025 156.1 181.205 155.72C180.525 155.14 180.185 154.41 180.185 153.53C180.185 152.95 180.345 152.5 180.665 152.18C180.985 151.86 181.425 151.72 181.985 151.76C181.965 151.3 181.845 150.92 181.625 150.62C181.405 150.32 181.045 150.17 180.545 150.17C180.085 150.17 179.645 150.31 179.225 150.59C178.825 150.87 178.445 151.23 178.085 151.67C177.745 152.09 177.435 152.53 177.155 152.99C176.895 153.43 176.675 153.83 176.495 154.19C176.235 154.71 175.995 155.34 175.775 156.08C175.555 156.82 175.445 157.51 175.445 158.15C175.445 158.71 175.555 159.18 175.775 159.56C176.015 159.92 176.445 160.1 177.065 160.1ZM181.302 168.44C181.402 168.3 181.532 168.05 181.692 167.69C181.852 167.35 182.022 166.98 182.202 166.58C182.382 166.18 182.532 165.84 182.652 165.56C182.992 164.72 183.382 163.69 183.822 162.47C184.262 161.27 184.712 160.01 185.172 158.69C185.632 157.37 186.072 156.11 186.492 154.91C186.912 153.71 187.282 152.72 187.602 151.94C187.902 151.22 188.162 150.65 188.382 150.23C188.602 149.79 188.912 149.48 189.312 149.3C189.732 149.1 190.362 149 191.202 149H192.102C191.822 149.2 191.452 149.66 190.992 150.38C190.552 151.08 190.132 151.82 189.732 152.6C189.872 152.42 190.002 152.25 190.122 152.09C190.242 151.91 190.372 151.75 190.512 151.61C191.152 150.83 191.832 150.18 192.552 149.66C193.272 149.14 193.972 148.88 194.652 148.88C195.212 148.88 195.682 149.09 196.062 149.51C196.462 149.93 196.662 150.64 196.662 151.64C196.662 152.56 196.482 153.49 196.122 154.43C195.782 155.35 195.322 156.23 194.742 157.07C194.162 157.89 193.522 158.62 192.822 159.26C192.682 159.4 192.522 159.54 192.342 159.68C192.182 159.8 192.012 159.92 191.832 160.04C192.472 160.1 193.102 159.95 193.722 159.59C194.362 159.23 194.942 158.79 195.462 158.27C196.002 157.75 196.442 157.28 196.782 156.86C197.182 156.34 197.582 155.74 197.982 155.06C198.402 154.38 198.742 153.78 199.002 153.26C199.082 153.12 199.152 153.05 199.212 153.05C199.372 153.05 199.452 153.23 199.452 153.59C199.452 153.91 199.352 154.24 199.152 154.58C198.992 154.88 198.772 155.26 198.492 155.72C198.212 156.18 197.962 156.58 197.742 156.92C196.822 158.26 195.752 159.36 194.532 160.22C193.312 161.08 191.842 161.51 190.122 161.51C189.982 161.51 189.832 161.51 189.672 161.51C189.532 161.51 189.382 161.5 189.222 161.48C188.742 161.44 188.292 161.32 187.872 161.12C187.452 160.94 187.172 160.59 187.032 160.07L185.352 165.32C185.132 166.02 184.932 166.6 184.752 167.06C184.552 167.52 184.312 167.86 184.032 168.08C183.732 168.32 183.302 168.44 182.742 168.44H181.302ZM188.532 160.22C188.872 160.22 189.262 160.05 189.702 159.71C190.142 159.35 190.572 158.91 190.992 158.39C191.432 157.85 191.802 157.33 192.102 156.83C192.562 156.03 192.952 155.21 193.272 154.37C193.592 153.53 193.752 152.84 193.752 152.3C193.752 151.7 193.512 151.4 193.032 151.4C192.612 151.4 192.152 151.6 191.652 152C191.292 152.28 190.882 152.69 190.422 153.23C189.982 153.77 189.542 154.38 189.102 155.06C188.682 155.72 188.332 156.4 188.052 157.1C187.792 157.78 187.662 158.4 187.662 158.96C187.662 159.06 187.662 159.16 187.662 159.26C187.682 159.34 187.702 159.43 187.722 159.53C187.822 159.99 188.092 160.22 188.532 160.22Z" fill="white"/>
</svg>
